<svg xmlns="http://www.w3.org/2000/svg" xmlns:xlink="http://www.w3.org/1999/xlink" width="1080" zoomAndPan="magnify" viewBox="0 0 810 809.999993" height="1080" preserveAspectRatio="xMidYMid meet" version="1.0"><defs><clipPath id="ffa4f1b42c"><path d="M 186 326 L 327 326 L 327 492.710938 L 186 492.710938 Z M 186 326 " clip-rule="nonzero"/></clipPath><clipPath id="95d9f10af2"><path d="M 347 325 L 500 325 L 500 492.710938 L 347 492.710938 Z M 347 325 " clip-rule="nonzero"/></clipPath><clipPath id="277d1b6bc6"><path d="M 511 327 L 624 327 L 624 492.710938 L 511 492.710938 Z M 511 327 " clip-rule="nonzero"/></clipPath><clipPath id="d57664d27f"><path d="M 651 380 L 702 380 L 702 492.710938 L 651 492.710938 Z M 651 380 " clip-rule="nonzero"/></clipPath><clipPath id="97b2d45b99"><path d="M 638 317.210938 L 685 317.210938 L 685 364 L 638 364 Z M 638 317.210938 " clip-rule="nonzero"/></clipPath><clipPath id="5bca8e0bd7"><path d="M 121 380 L 172 380 L 172 492.710938 L 121 492.710938 Z M 121 380 " clip-rule="nonzero"/></clipPath><clipPath id="504cc9ca52"><path d="M 108 317.210938 L 155 317.210938 L 155 364 L 108 364 Z M 108 317.210938 " clip-rule="nonzero"/></clipPath></defs><g clip-path="url(#ffa4f1b42c)"><path fill="#464f15" d="M 226.386719 327.144531 L 189.371094 327.144531 C 187.792969 327.144531 186.511719 328.421875 186.511719 330 L 186.511719 489.855469 C 186.511719 491.433594 187.792969 492.710938 189.371094 492.710938 L 241.171875 492.710938 C 242.925781 492.710938 244.261719 491.15625 243.996094 489.425781 L 234.234375 425.636719 C 233.972656 423.902344 235.308594 422.347656 237.0625 422.347656 L 237.117188 422.347656 C 238.113281 422.347656 239.027344 422.855469 239.558594 423.683594 L 282.589844 490.570312 C 283.117188 491.390625 284.023438 491.886719 284.996094 491.886719 L 323.652344 491.886719 C 325.230469 491.886719 326.511719 490.605469 326.511719 489.027344 L 326.511719 329.175781 C 326.511719 327.597656 325.230469 326.316406 323.652344 326.316406 L 270.289062 326.316406 C 268.5 326.316406 267.152344 327.925781 267.472656 329.679688 L 279.496094 395.800781 C 279.816406 397.554688 278.46875 399.164062 276.679688 399.164062 C 275.71875 399.164062 274.816406 398.679688 274.285156 397.875 L 228.769531 328.433594 C 228.238281 327.628906 227.34375 327.144531 226.375 327.144531 Z M 226.386719 327.144531 " fill-opacity="1" fill-rule="nonzero"/></g><g clip-path="url(#95d9f10af2)"><path fill="#464f15" d="M 423.429688 325.488281 L 347.21875 325.488281 L 347.21875 492.710938 L 419.398438 492.710938 C 426.023438 492.710938 432.617188 491.742188 438.929688 489.777344 C 459.679688 483.3125 499.640625 463.871094 499.640625 409.933594 C 499.640625 328.808594 442.089844 325.5 423.429688 325.5 Z M 437.660156 430.183594 C 426.808594 441.027344 409.226562 441.027344 398.375 430.183594 C 387.519531 419.335938 387.519531 401.757812 398.375 390.921875 C 409.226562 380.074219 426.808594 380.074219 437.660156 390.921875 C 448.515625 401.746094 448.515625 419.335938 437.660156 430.183594 Z M 437.660156 430.183594 " fill-opacity="1" fill-rule="nonzero"/></g><g clip-path="url(#277d1b6bc6)"><path fill="#464f15" d="M 618.132812 367.550781 L 623.355469 330.984375 C 623.640625 328.953125 622.074219 327.144531 620.019531 327.144531 L 516.953125 327.144531 C 513.796875 327.144531 511.234375 329.703125 511.234375 332.859375 L 511.234375 487.042969 C 511.234375 490.175781 513.773438 492.710938 516.910156 492.710938 L 611.949219 492.710938 C 615.449219 492.710938 618.386719 490.074219 618.75 486.601562 L 622.679688 449.25 C 622.890625 447.261719 621.332031 445.53125 619.335938 445.53125 L 571.710938 445.53125 C 567.140625 445.53125 563.429688 441.824219 563.429688 437.253906 C 563.429688 432.6875 567.140625 428.980469 571.710938 428.980469 L 607.949219 428.980469 C 609.894531 428.980469 611.472656 427.402344 611.472656 425.460938 L 611.472656 392.765625 C 611.472656 390.824219 609.894531 389.246094 607.949219 389.246094 L 571.644531 389.246094 C 567.105469 389.246094 563.429688 385.570312 563.429688 381.035156 C 563.429688 376.445312 567.183594 372.75 571.777344 372.824219 L 611.25 373.433594 C 614.695312 373.488281 617.632812 370.972656 618.121094 367.574219 Z M 618.132812 367.550781 " fill-opacity="1" fill-rule="nonzero"/></g><g clip-path="url(#d57664d27f)"><path fill="#464f15" d="M 652.007812 484.703125 L 652.867188 387.800781 C 652.902344 383.582031 656.589844 380.195312 661.09375 380.230469 C 664.628906 380.261719 667.742188 382.425781 668.800781 385.59375 L 701.386719 482.792969 C 703.042969 487.746094 699.078125 492.769531 693.535156 492.710938 L 660.078125 492.414062 C 655.574219 492.371094 651.953125 488.917969 651.996094 484.703125 Z M 652.007812 484.703125 " fill-opacity="1" fill-rule="nonzero"/></g><g clip-path="url(#97b2d45b99)"><path fill="#464f15" d="M 684.691406 340.261719 C 684.691406 341.019531 684.65625 341.773438 684.582031 342.523438 C 684.507812 343.273438 684.394531 344.019531 684.25 344.761719 C 684.101562 345.5 683.917969 346.230469 683.699219 346.953125 C 683.480469 347.675781 683.226562 348.386719 682.9375 349.085938 C 682.648438 349.78125 682.324219 350.464844 681.96875 351.128906 C 681.613281 351.796875 681.222656 352.441406 680.804688 353.070312 C 680.382812 353.699219 679.933594 354.304688 679.457031 354.886719 C 678.976562 355.46875 678.46875 356.027344 677.9375 356.5625 C 677.402344 357.097656 676.84375 357.601562 676.257812 358.082031 C 675.675781 358.5625 675.070312 359.011719 674.441406 359.429688 C 673.8125 359.847656 673.164062 360.238281 672.5 360.59375 C 671.832031 360.949219 671.148438 361.269531 670.453125 361.558594 C 669.753906 361.847656 669.042969 362.101562 668.320312 362.320312 C 667.597656 362.539062 666.867188 362.722656 666.125 362.871094 C 665.382812 363.019531 664.636719 363.128906 663.886719 363.203125 C 663.132812 363.277344 662.378906 363.3125 661.625 363.3125 C 660.871094 363.3125 660.117188 363.277344 659.363281 363.203125 C 658.613281 363.128906 657.867188 363.019531 657.125 362.871094 C 656.382812 362.722656 655.652344 362.539062 654.929688 362.320312 C 654.207031 362.101562 653.496094 361.847656 652.796875 361.558594 C 652.101562 361.269531 651.417969 360.949219 650.75 360.59375 C 650.085938 360.238281 649.4375 359.847656 648.808594 359.429688 C 648.183594 359.011719 647.574219 358.5625 646.992188 358.082031 C 646.40625 357.601562 645.847656 357.097656 645.316406 356.5625 C 644.78125 356.027344 644.273438 355.46875 643.792969 354.886719 C 643.316406 354.304688 642.867188 353.699219 642.445312 353.070312 C 642.027344 352.441406 641.636719 351.796875 641.28125 351.128906 C 640.925781 350.464844 640.601562 349.78125 640.3125 349.085938 C 640.023438 348.386719 639.769531 347.675781 639.550781 346.953125 C 639.332031 346.230469 639.148438 345.5 639 344.761719 C 638.855469 344.019531 638.742188 343.273438 638.667969 342.523438 C 638.59375 341.773438 638.558594 341.019531 638.558594 340.261719 C 638.558594 339.507812 638.59375 338.753906 638.667969 338.003906 C 638.742188 337.253906 638.855469 336.507812 639 335.765625 C 639.148438 335.027344 639.332031 334.292969 639.550781 333.570312 C 639.769531 332.851562 640.023438 332.140625 640.3125 331.441406 C 640.601562 330.746094 640.925781 330.0625 641.28125 329.398438 C 641.636719 328.730469 642.027344 328.085938 642.445312 327.457031 C 642.867188 326.828125 643.316406 326.222656 643.792969 325.640625 C 644.273438 325.058594 644.78125 324.496094 645.316406 323.964844 C 645.847656 323.429688 646.40625 322.925781 646.992188 322.445312 C 647.574219 321.964844 648.183594 321.515625 648.808594 321.097656 C 649.4375 320.679688 650.085938 320.289062 650.75 319.933594 C 651.417969 319.578125 652.101562 319.257812 652.796875 318.96875 C 653.496094 318.679688 654.207031 318.425781 654.929688 318.207031 C 655.652344 317.984375 656.382812 317.804688 657.125 317.65625 C 657.867188 317.507812 658.613281 317.398438 659.363281 317.324219 C 660.117188 317.25 660.871094 317.210938 661.625 317.210938 C 662.378906 317.210938 663.132812 317.25 663.886719 317.324219 C 664.636719 317.398438 665.382812 317.507812 666.125 317.65625 C 666.867188 317.804688 667.597656 317.984375 668.320312 318.207031 C 669.042969 318.425781 669.753906 318.679688 670.453125 318.96875 C 671.148438 319.257812 671.832031 319.578125 672.5 319.933594 C 673.164062 320.289062 673.8125 320.679688 674.441406 321.097656 C 675.070312 321.515625 675.675781 321.964844 676.257812 322.445312 C 676.84375 322.925781 677.402344 323.429688 677.9375 323.964844 C 678.46875 324.496094 678.976562 325.058594 679.457031 325.640625 C 679.933594 326.222656 680.382812 326.828125 680.804688 327.457031 C 681.222656 328.085938 681.613281 328.730469 681.96875 329.398438 C 682.324219 330.0625 682.648438 330.746094 682.9375 331.441406 C 683.226562 332.140625 683.480469 332.851562 683.699219 333.570312 C 683.917969 334.292969 684.101562 335.027344 684.25 335.765625 C 684.394531 336.507812 684.507812 337.253906 684.582031 338.003906 C 684.65625 338.753906 684.691406 339.507812 684.691406 340.261719 Z M 684.691406 340.261719 " fill-opacity="1" fill-rule="nonzero"/></g><g clip-path="url(#5bca8e0bd7)"><path fill="#464f15" d="M 121.828125 484.703125 L 122.691406 387.800781 C 122.722656 383.582031 126.410156 380.195312 130.917969 380.230469 C 134.449219 380.261719 137.5625 382.425781 138.625 385.59375 L 171.207031 482.792969 C 172.863281 487.746094 168.902344 492.769531 163.359375 492.710938 L 129.902344 492.414062 C 125.394531 492.371094 121.773438 488.917969 121.816406 484.703125 Z M 121.828125 484.703125 " fill-opacity="1" fill-rule="nonzero"/></g><g clip-path="url(#504cc9ca52)"><path fill="#464f15" d="M 154.523438 340.261719 C 154.523438 341.019531 154.488281 341.773438 154.414062 342.523438 C 154.339844 343.273438 154.226562 344.019531 154.082031 344.761719 C 153.933594 345.5 153.75 346.230469 153.53125 346.953125 C 153.3125 347.675781 153.058594 348.386719 152.769531 349.085938 C 152.480469 349.78125 152.15625 350.464844 151.800781 351.128906 C 151.445312 351.796875 151.054688 352.441406 150.636719 353.070312 C 150.21875 353.699219 149.765625 354.304688 149.289062 354.886719 C 148.808594 355.46875 148.300781 356.027344 147.769531 356.5625 C 147.234375 357.097656 146.675781 357.601562 146.089844 358.082031 C 145.507812 358.5625 144.902344 359.011719 144.273438 359.429688 C 143.644531 359.847656 142.996094 360.238281 142.332031 360.59375 C 141.664062 360.949219 140.984375 361.269531 140.285156 361.558594 C 139.585938 361.847656 138.875 362.101562 138.152344 362.320312 C 137.429688 362.539062 136.699219 362.722656 135.957031 362.871094 C 135.214844 363.019531 134.46875 363.128906 133.71875 363.203125 C 132.964844 363.277344 132.210938 363.3125 131.457031 363.3125 C 130.703125 363.3125 129.949219 363.277344 129.195312 363.203125 C 128.445312 363.128906 127.699219 363.019531 126.957031 362.871094 C 126.214844 362.722656 125.484375 362.539062 124.761719 362.320312 C 124.039062 362.101562 123.328125 361.847656 122.628906 361.558594 C 121.933594 361.269531 121.25 360.949219 120.582031 360.59375 C 119.917969 360.238281 119.269531 359.847656 118.640625 359.429688 C 118.015625 359.011719 117.40625 358.5625 116.824219 358.082031 C 116.238281 357.601562 115.679688 357.097656 115.148438 356.5625 C 114.613281 356.027344 114.105469 355.46875 113.625 354.886719 C 113.148438 354.304688 112.699219 353.699219 112.277344 353.070312 C 111.859375 352.441406 111.46875 351.796875 111.113281 351.128906 C 110.757812 350.464844 110.4375 349.78125 110.148438 349.085938 C 109.859375 348.386719 109.601562 347.675781 109.382812 346.953125 C 109.164062 346.230469 108.980469 345.5 108.832031 344.761719 C 108.6875 344.019531 108.574219 343.273438 108.5 342.523438 C 108.429688 341.773438 108.390625 341.019531 108.390625 340.261719 C 108.390625 339.507812 108.429688 338.753906 108.5 338.003906 C 108.574219 337.253906 108.6875 336.507812 108.832031 335.765625 C 108.980469 335.027344 109.164062 334.292969 109.382812 333.570312 C 109.601562 332.851562 109.859375 332.140625 110.148438 331.441406 C 110.4375 330.746094 110.757812 330.0625 111.113281 329.398438 C 111.46875 328.730469 111.859375 328.085938 112.277344 327.457031 C 112.699219 326.828125 113.148438 326.222656 113.625 325.640625 C 114.105469 325.058594 114.613281 324.496094 115.148438 323.964844 C 115.679688 323.429688 116.238281 322.925781 116.824219 322.445312 C 117.40625 321.964844 118.015625 321.515625 118.640625 321.097656 C 119.269531 320.679688 119.917969 320.289062 120.582031 319.933594 C 121.25 319.578125 121.933594 319.257812 122.628906 318.96875 C 123.328125 318.679688 124.039062 318.425781 124.761719 318.207031 C 125.484375 317.984375 126.214844 317.804688 126.957031 317.65625 C 127.699219 317.507812 128.445312 317.398438 129.195312 317.324219 C 129.949219 317.25 130.703125 317.210938 131.457031 317.210938 C 132.210938 317.210938 132.964844 317.25 133.71875 317.324219 C 134.46875 317.398438 135.214844 317.507812 135.957031 317.65625 C 136.699219 317.804688 137.429688 317.984375 138.152344 318.207031 C 138.875 318.425781 139.585938 318.679688 140.285156 318.96875 C 140.984375 319.257812 141.664062 319.578125 142.332031 319.933594 C 142.996094 320.289062 143.644531 320.679688 144.273438 321.097656 C 144.902344 321.515625 145.507812 321.964844 146.089844 322.445312 C 146.675781 322.925781 147.234375 323.429688 147.769531 323.964844 C 148.300781 324.496094 148.808594 325.058594 149.289062 325.640625 C 149.765625 326.222656 150.21875 326.828125 150.636719 327.457031 C 151.054688 328.085938 151.445312 328.730469 151.800781 329.398438 C 152.15625 330.0625 152.480469 330.746094 152.769531 331.441406 C 153.058594 332.140625 153.3125 332.851562 153.53125 333.570312 C 153.75 334.292969 153.933594 335.027344 154.082031 335.765625 C 154.226562 336.507812 154.339844 337.253906 154.414062 338.003906 C 154.488281 338.753906 154.523438 339.507812 154.523438 340.261719 Z M 154.523438 340.261719 " fill-opacity="1" fill-rule="nonzero"/></g></svg>