<?xml version="1.0" encoding="UTF-8"?><svg id="Camada_2" xmlns="http://www.w3.org/2000/svg" viewBox="0 0 246.65 299.67"><defs><style>.cls-1{fill:#fec430;}</style></defs><g id="Camada_de_Informações_da_amostra"><path class="cls-1" d="M220.05,90.92c.58-1.06,2.12-.98,2.58.14l9.63,23.55c2.34,5.72,1.03,12.28-3.33,16.67l-12.08,12.13c-.14.14-.31.25-.49.32l-48.48,18.97c-1.47.58-1.06,2.76.52,2.76l23.05-.04c.09,0,.17,0,.26-.02,17.67-3.18,33.89-11.75,46.46-24.5.83-.84,2.26-.37,2.43.8l3.01,21.58c1.08,7.68-2.44,15.3-8.99,19.46l-8.48,5.4c-1.98,1.26-4.24,2.03-6.59,2.23l-57.88,5.03c-1.55.13-1.8,2.3-.32,2.78l37.09,12.07c.1.03.21.06.32.07,15.81,1.41,31.68-1.67,45.8-8.88.97-.5,2.12.23,2.08,1.32l-.42,11.8c-.23,6.33-3.43,12.18-8.63,15.8l-19.86,13.78c-.26.18-.58.27-.9.25l-46.67-2.96c-1.8-.11-2.11,2.52-.34,2.83l64.13,11.27c1.11.2,1.57,1.54.8,2.37l-34.92,37.81c-.25.27-.59.43-.95.46l-50.14,3.51c-.4.03-.79-.11-1.08-.38,0,0-33.7-35.39-34.28-34.42-11.98,20.08-38.95,24.36-38.95,24.36-.35.19-.76.23-1.14.1l-47.63-16.06c-.34-.12-.63-.36-.8-.68L.76,227.44c-.56-1.05.33-2.28,1.5-2.08l65.2,11.29c1.75.3,2.37-2.22.68-2.76l-46.87-15.24c-.25-.08-.47-.23-.64-.43l-15.8-18.42c-4.12-4.81-5.74-11.28-4.36-17.46l2.57-11.52c.24-1.07,1.53-1.48,2.35-.75,11.88,10.57,26.51,17.58,42.24,20.19l35.63,5.91c1.6.27,2.33-1.92.9-2.67l-54.93-28.92c-.14-.08-.27-.17-.38-.29l-9.11-9.81c-5.29-5.69-6.76-13.94-3.78-21.1l8.37-20.11c.45-1.09,1.96-1.19,2.55-.16,8.96,15.55,22.53,27.97,38.88,35.51l20.76,9.57c1.51.7,2.79-1.31,1.52-2.39l-40.83-34.45c-.12-.11-.23-.23-.31-.37l-8.65-14.84c-3.11-5.34-2.72-12.02.98-16.97l15.28-20.35c.72-.96,2.23-.65,2.53.52,2.85,11.31,9.15,21.48,18.05,29.09l18.04,15.41c1.22,1.04,2.96-.4,2.17-1.79l-20.85-36.49c-3.24-5.67-2.82-12.72,1.09-17.96l15.26-20.5c.74-1,2.32-.63,2.55.59,1.92,10.31,6.66,19.92,13.72,27.74l7.95,8.8c1.03,1.14,2.9.06,2.41-1.4l-8.69-26.29c-2.24-6.8-.05-14.26,5.52-18.77L148.41.1c.2-.16.2-.16.45.25h0c-.01.09,21.63,27.75,21.63,27.75,4.21,5.72,4.47,13.44.66,19.43-.05.08-.09.16-.13.25l-12.41,32.82c-.49,1.29.96,2.46,2.12,1.7l11.9-7.81c8.81-5.78,15.83-13.88,20.29-23.37.53-1.13,2.14-1.08,2.61.07l9.59,23.69c2.43,6,1.1,12.87-3.38,17.53-.07.08-.15.14-.24.2l-31.45,21.19c-1.22.82-.55,2.72.91,2.61l24-1.89c.18-.01.36-.06.52-.14,10.42-5.12,18.99-13.32,24.56-23.46Z"/></g></svg>