<?xml version="1.0" encoding="UTF-8"?><svg id="Camada_2" xmlns="http://www.w3.org/2000/svg" viewBox="0 0 255.65 210.84"><defs><style>.cls-1{fill:#807921;}.cls-2{fill:#d92387;}</style></defs><g id="Camada_de_Informações_da_amostra"><path class="cls-1" d="M181.98,210.74l-115.74-22.19c-1.14-.22-2.18-.8-2.95-1.67L1.36,118c-1.1-1.22-1.57-2.89-1.28-4.51l4.85-26.57c.75-4.13,5.78-5.8,8.85-2.93l18.9,17.62c.14.13.26.26.39.4l51.43,59.16c.58.66,1.31,1.17,2.13,1.49l48.3,18.22c5.39,2.03,9.71-4.77,5.58-8.79l-61.87-60.07c-.14-.13-.27-.27-.39-.42l-40.84-49.17c-.75-.91-1.18-2.04-1.22-3.22l-.95-29.13c-.12-3.78,3.63-6.47,7.17-5.15l36.72,13.71c1.12.42,2.07,1.21,2.69,2.23l39.96,66.24c.07.12.15.24.23.35h0c3.74,5.21,11.8.56,9.16-5.28l-8.24-18.26-12.33-27.97c-.57-1.3-.6-2.78-.08-4.1l5.89-14.89c1.16-2.94,4.62-4.22,7.41-2.75l20.9,10.99c1.15.61,2.04,1.61,2.5,2.83l21.17,56.09c.12.31.2.63.26.95l7.24,40.86c1.08,6.1,9.95,5.73,10.52-.44l.33-3.6c.04-.46.02-.93-.05-1.38l-10.27-60.23c-.09-.52-.25-1.01-.48-1.48l-31.9-63.83c-.41-.82-.6-1.73-.55-2.64l.37-7.29c.16-3.11,2.95-5.42,6.04-4.99l22.49,3.13c1.56.22,2.93,1.11,3.77,2.44l28.39,45.24c.32.51.55,1.06.68,1.65l6.98,30.7c.1.43.14.87.13,1.31l-1.19,46.93c0,.37-.06.73-.14,1.09l-4.69,19.83c-1.39,5.88,6.55,9.15,9.7,4l5.06-8.26c.32-.52.55-1.1.67-1.7l8.13-39.21c.13-.61.14-1.24.05-1.85l-6.18-42.08c-.21-1.41.16-2.85,1.03-3.99l2.64-3.47c1.67-2.19,4.73-2.75,7.06-1.28l12.73,8.02c1.36.86,2.26,2.28,2.45,3.88l5.95,51.06c.11.95-.04,1.91-.43,2.78l-19.27,43.1c-.29.66-.72,1.25-1.25,1.74l-48.08,44.32c-1.24,1.14-2.95,1.63-4.6,1.31Z"/><polygon class="cls-2" points="158.04 167.28 147.45 168.88 149.84 179.39 139.6 176.23 137.2 186.75 129.34 179.45 122.62 187.89 118.71 177.91 108.99 182.59 109.79 171.9 99.01 171.9 104.37 162.62 94.65 157.94 103.5 151.9 96.78 143.47 107.38 141.87 104.98 131.36 115.22 134.52 117.62 124.01 125.48 131.3 132.2 122.87 136.11 132.84 145.83 128.16 145.03 138.85 155.82 138.85 150.46 148.13 160.17 152.81 151.32 158.85 158.04 167.28"/></g></svg>