<?xml version="1.0" encoding="UTF-8"?><svg id="Camada_2" xmlns="http://www.w3.org/2000/svg" viewBox="0 0 268.47 333.89"><defs><style>.cls-1{fill:#d92387;}</style></defs><g id="Camada_de_Informações_da_amostra"><path class="cls-1" d="M.41,200.14c.59-.8,1.67-1.06,2.57-.64l45.58,21.73c.44.21.79.57,1,1.02l13.27,29.12c.03-.11.06-.21.11-.31l5.32-12.15-19.27-32.74-17.77-23.41c-.25-.34-.4-.73-.42-1.16l-2.35-46.65-8.59-22.16c-.38-.98,0-2.05.92-2.57.91-.51,2.04-.28,2.67.55l28.08,36.67c.16.22.28.46.35.72l21.28,79.57,7.18-16.4-13.57-51.25-17.82-36.5c-.46-.94-.16-2.05.71-2.64.87-.59,2.01-.44,2.71.34l32.91,36.78c.32.36.51.82.53,1.3l1.58,35.88,1.5-3.43c.08-.19.2-.37.34-.53l9.04-10.34-8.36-40.95-9.84-47.58c-.21-1.02.34-2.01,1.32-2.37.97-.36,2.04.04,2.54.95l24.94,45.23c.19.35.28.74.26,1.14l-2.15,33.62,5.26-6.02c.09-.1.18-.19.29-.27l8.03-6.17-6.54-48.77-9.27-37.06c-.24-.96.21-1.93,1.1-2.37.89-.44,1.93-.2,2.55.57l24.73,31.13c.34.43.5.97.44,1.52l-5.39,49.14,10.1-7.75,7.09-39.11-.8-44.09c-.02-1,.65-1.85,1.63-2.07.98-.22,1.95.27,2.35,1.19l16.89,38.06c.23.52.24,1.12.02,1.65l-14.72,35.37,32.33-21.08-5.59-13.72c-.1-.24-.15-.49-.15-.75l-.5-27.58c0-.14.01-.28.04-.42l4.71-24.75c.19-.98,1.02-1.68,2.02-1.69.01,0,.02,0,.03,0,.99,0,1.82.67,2.03,1.64l7.66,34.9c.06.28.06.57,0,.85l-2.11,10.58-.06,12.03,18.19-32.92-14.41-38.93c-.11-.31-.15-.65-.11-.97l3.78-31.27c.11-.94.85-1.69,1.8-1.81.94-.13,1.85.41,2.2,1.29l16.91,42.24c.15.36.18.76.11,1.15l-5.68,31.16c-.04.2-.1.39-.19.57l-8.43,16.54,12.42-9c.44-.32.97-.45,1.51-.38l27.69,3.83,18.98-4.62c.9-.22,1.82.17,2.29.97.47.8.36,1.79-.27,2.47l-11.18,12.1c-.41.44-.99.68-1.59.67l-30.19-.93-25.74,6.86-6.76,13.28c-.17.33-.42.61-.73.8l-3.05,1.96,35.65-6.41c.19-.03.39-.04.59-.02l28.79,3.05c.51.05.97.29,1.32.66l5.08,5.54c.55.6.7,1.48.38,2.23-.32.75-1.06,1.25-1.88,1.26l-28.48.5-22.26,6.19c-.24.07-.49.09-.75.07l-34.1-3-14.96,9.63,26.03-7.04c.29-.08.6-.09.91-.04l30.84,5.4c.39.07.76.25,1.05.52l28.57,26.17c.68.63.87,1.61.47,2.44-.4.83-1.29,1.29-2.2,1.15l-46.05-7.36-37.8-7.41c-.05-.01-.11-.02-.16-.04l-14.81-4.34-16.73,13.7,26.86-3.64c.25-.03.5-.02.73.03l44.57,10.03c.63.14,1.15.56,1.42,1.14l15.97,33.82c.39.82.2,1.79-.46,2.41s-1.65.74-2.44.29l-48.13-27.23-47.54-9.48-1.08.88-18.01,22.13,34.5-11.39c.33-.11.69-.13,1.03-.07l38.17,7.07c.47.09.9.33,1.21.7l21.42,25.09c.61.71.66,1.75.14,2.52s-1.51,1.1-2.39.8l-56.42-19.12-43.96,4.81-9.94,22.39,48.67-18.7c.44-.17.93-.18,1.37-.04l34.8,11.01c.56.18,1.02.58,1.26,1.11l15.86,34.25c.39.84.19,1.81-.5,2.43s-1.68.7-2.47.23l-45.95-27.98-57.09,6.83-7.5,16.88.61,5.77,23.49-15.5c.3-.2.64-.31,1-.34l47.04-3.3c.79-.06,1.56.35,1.95,1.04l23.56,41.11c.46.81.34,1.8-.3,2.47-.64.67-1.63.84-2.46.41l-55.52-28.62-37.99,10.23,6.64,63.12c.11,1.06-.59,2.03-1.63,2.25l-10.07,2.18c-.15.03-.29.05-.44.05-.46,0-.9-.15-1.27-.44-.49-.38-.78-.94-.81-1.56l-2.7-64.64-26.33-24.21s-.08-.08-.12-.12L.54,202.78c-.67-.73-.72-1.84-.13-2.64Z"/></g></svg>