<?xml version="1.0" encoding="UTF-8"?><svg id="Camada_2" xmlns="http://www.w3.org/2000/svg" viewBox="0 0 201.78 291.74"><defs><style>.cls-1{fill:#a69b02;}.cls-2{fill:#f69220;}</style></defs><g id="Camada_de_Informações_da_amostra"><path class="cls-1" d="M75.41,248.35l-.59,28.43c-.18,8.75,7.29,15.7,16,14.89l28.24-2.63c7.53-.7,13.29-7.02,13.29-14.58v-92.11c0-7.46,5.61-13.73,13.03-14.56l28.18-3.13c3.36-.37,6.48-1.89,8.84-4.3l15.19-15.5c2.78-2.84,4.29-6.68,4.18-10.66l-1.07-38.64c-.13-4.52-2.31-8.77-5.98-11.41-5.14-3.7-13.89-7.93-26.99-7.93-16.06,0-17.36,17.43-18.04,23.9-.69,6.47-3.37,29.13-14.34,26.95-1.6-.32,1.03-74.44,1.89-97.78.16-4.4-1.67-8.65-4.98-11.55l-16.05-14.08C112.11.05,106.35-1,101.27,1c-6.61,2.6-15.05,8.87-20.4,23.88-7.71,21.62-4.51,107.37-2.73,144.13.52,10.74-10.4,18.54-20.26,14.23-.61-.27-1.16-.56-1.63-.89-4.64-3.21-1.25-30.88.07-40.41.31-2.22.1-4.48-.6-6.61-2.25-6.78-7.77-21.33-13.59-21.33-7.58,0-27.11,8.57-37.44,21.72-7.92,10.08-3.93,48.46-1.63,65.81.7,5.28,4.21,9.77,9.17,11.71l53.89,21.16c5.71,2.24,9.42,7.81,9.29,13.94Z"/><polygon class="cls-2" points="157.3 40.9 150.1 41.99 151.73 49.12 144.78 46.98 143.15 54.11 137.81 49.17 133.25 54.89 130.59 48.12 124 51.29 124.54 44.04 117.22 44.04 120.86 37.74 114.26 34.56 120.27 30.46 115.71 24.74 122.9 23.65 121.27 16.51 128.22 18.66 129.85 11.52 135.19 16.47 139.75 10.75 142.41 17.52 149.01 14.34 148.47 21.6 155.79 21.6 152.15 27.9 158.74 31.07 152.73 35.18 157.3 40.9"/></g></svg>