<?xml version="1.0" encoding="UTF-8"?><svg id="Camada_2" xmlns="http://www.w3.org/2000/svg" viewBox="0 0 241.73 311.6"><defs><style>.cls-1{fill:#f69220;}</style></defs><g id="Camada_de_Informações_da_amostra"><path class="cls-1" d="M236.7,134.46l-37.52,44.98c-1.68,2.01-4.94.88-5.03-1.73l-2.42-71.88c-.02-.47-.15-.94-.39-1.35l-27.98-47.44c-1.13-1.92-3.94-1.85-4.97.13l-20.74,39.67c-1.25,2.39-4.82,1.86-5.32-.79l-11.1-58.69c-.11-.57-.39-1.1-.8-1.51l-29.08-28.5c-1.71-1.68-4.6-.62-4.83,1.76l-4.01,42.26c-.21,2.19-2.72,3.33-4.5,2.04L4.75.55C2.39-1.14-.7,1.36.48,4.01l39.48,89.47c1.06,2.4-1.42,4.84-3.8,3.73l-32.11-14.87c-2.37-1.1-4.85,1.32-3.81,3.72l23.04,52.86c.14.32.34.62.59.87l26.3,26.56c2.08,2.1-.03,5.59-2.86,4.72l-32.9-10.1c-1.73-.53-3.52.67-3.67,2.48l-3.57,41.96c-.1,1.18.54,2.3,1.61,2.81l86.65,41.24c2.59,1.23,1.93,5.1-.93,5.4l-42.13,4.44c-2.27.24-3.35,2.92-1.88,4.67l34.42,40.71c.5.6,1.24.96,2.02,1l109.56,5.92c.79.04,1.56-.25,2.13-.8l.49-.48,3.28-3.17s0-.02.02-.02h0s.06-.03.05-.04h0s2.78-2.7,2.78-2.7l1.51-1.46.7-.68c.23-.23.43-.49.57-.78l32.12-64.58c.19-.39.29-.8.3-1.23l1.24-99.33c.03-2.68-3.32-3.92-5.03-1.86Z"/></g></svg>