<?xml version="1.0" encoding="UTF-8"?><svg id="Camada_2" xmlns="http://www.w3.org/2000/svg" viewBox="0 0 243.98 235.71"><defs><style>.cls-1{fill:#a69b02;}.cls-2{fill:#d92387;}</style></defs><g id="Camada_de_Informações_da_amostra"><polygon class="cls-1" points="77.76 0 19.26 50.33 0 101.37 12.13 166.24 44.59 205.93 115.21 235.71 119.37 120.87 200.1 206.64 224.72 177.93 243.98 111.65 224.72 43.6 168.36 .35 77.76 0"/><polygon class="cls-2" points="109.14 203.95 96.08 205.91 99.04 218.83 86.41 214.95 83.46 227.86 73.77 218.91 65.49 229.26 60.66 217.01 48.69 222.76 49.67 209.63 36.38 209.63 42.99 198.23 31.01 192.48 41.92 185.06 33.64 174.7 46.7 172.74 43.74 159.83 56.36 163.71 59.32 150.79 69.01 159.75 77.29 149.39 82.12 161.65 94.1 155.89 93.11 169.02 106.4 169.02 99.8 180.43 111.77 186.17 100.86 193.59 109.14 203.95"/></g></svg>