<?xml version="1.0" encoding="UTF-8"?><svg id="Camada_2" xmlns="http://www.w3.org/2000/svg" viewBox="0 0 509.85 619.01"><defs><style>.cls-1{fill:none;stroke:#d92387;stroke-miterlimit:10;stroke-width:2px;}</style></defs><g id="Camada_de_Informações_da_amostra"><path class="cls-1" d="M454.08,188.19c1.19-2.18,4.36-2.02,5.3.28l19.83,48.49c4.82,11.78,2.12,25.29-6.86,34.31l-24.86,24.98c-.29.29-.63.51-1.01.66l-99.83,39.06c-3.03,1.18-2.17,5.68,1.08,5.67l47.46-.08c.18,0,.36-.02.53-.05,36.38-6.54,69.78-24.2,95.67-50.45,1.71-1.73,4.66-.76,5,1.65l6.2,44.42c2.22,15.82-5.01,31.5-18.5,40.07l-17.47,11.13c-4.09,2.6-8.74,4.18-13.56,4.6l-119.18,10.35c-3.19.28-3.7,4.73-.66,5.72l76.37,24.86c.22.07.44.12.66.14,32.56,2.91,65.24-3.44,94.3-18.28,2-1.02,4.37.46,4.29,2.71l-.87,24.29c-.47,13.04-7.06,25.09-17.78,32.53l-40.89,28.37c-.54.38-1.2.56-1.86.52l-96.09-6.09c-3.7-.23-4.34,5.18-.69,5.83l132.04,23.2c2.29.4,3.23,3.18,1.65,4.89l-71.91,77.86c-.51.55-1.21.89-1.95.94l-103.24,7.22c-.82.06-1.62-.23-2.22-.79,0,0-69.38-72.87-70.57-70.88-24.67,41.35-80.19,50.17-80.19,50.17-.72.39-1.57.47-2.35.21l-98.07-33.06c-.71-.24-1.3-.74-1.65-1.4L2.58,469.3c-1.15-2.16.68-4.7,3.09-4.28l134.25,23.24c3.59.62,4.88-4.56,1.41-5.69l-96.5-31.37c-.51-.17-.97-.47-1.32-.88l-32.53-37.93c-8.49-9.91-11.82-23.23-8.99-35.95l5.29-23.72c.49-2.2,3.15-3.04,4.84-1.54,24.46,21.76,54.59,36.2,86.96,41.57l73.37,12.17c3.29.55,4.8-3.94,1.85-5.5l-113.1-59.54c-.29-.15-.56-.36-.78-.6l-18.76-20.2c-10.89-11.72-13.92-28.7-7.78-43.45l17.24-41.42c.94-2.25,4.04-2.45,5.25-.34,18.45,32.02,46.39,57.59,80.05,73.11l42.74,19.71c3.11,1.43,5.74-2.71,3.13-4.91l-84.07-70.94c-.26-.22-.47-.48-.64-.77l-17.8-30.55c-6.41-10.99-5.6-24.75,2.02-34.93l31.45-41.9c1.49-1.98,4.6-1.34,5.2,1.07,5.87,23.29,18.83,44.23,37.16,59.9l37.14,31.72c2.5,2.14,6.09-.83,4.46-3.69l-42.93-75.14c-6.68-11.67-5.8-26.19,2.24-36.97l31.42-42.21c1.53-2.06,4.77-1.3,5.24,1.22,3.95,21.24,13.71,41.02,28.25,57.12l16.37,18.11c2.13,2.36,5.97.12,4.97-2.89l-17.9-54.14c-4.62-13.99-.1-29.37,11.36-38.64L306.58,1.2c.4-.33.41-.33.93.52h0c-.02.18,44.53,57.14,44.53,57.14,8.68,11.78,9.21,27.67,1.37,40.01-.1.16-.19.34-.26.52l-25.55,67.57c-1.01,2.66,1.98,5.06,4.36,3.5l24.5-16.08c18.14-11.89,32.59-28.57,41.77-48.12,1.09-2.32,4.42-2.23,5.38.15l19.75,48.78c5,12.36,2.27,26.5-6.95,36.1-.15.16-.32.29-.49.41l-64.76,43.64c-2.51,1.69-1.14,5.6,1.87,5.37l49.41-3.9c.37-.03.74-.13,1.08-.29,21.45-10.54,39.1-27.43,50.57-48.31Z"/></g></svg>