<?xml version="1.0" encoding="UTF-8"?><svg id="Camada_2" xmlns="http://www.w3.org/2000/svg" viewBox="0 0 528.38 436.11"><defs><style>.cls-1{fill:none;stroke:#807921;stroke-miterlimit:10;stroke-width:2px;}</style></defs><g id="Camada_de_Informações_da_amostra"><path class="cls-1" d="M375.69,434.92l-238.32-45.7c-2.35-.45-4.48-1.65-6.08-3.43L3.8,243.96c-2.26-2.52-3.23-5.95-2.63-9.28l9.98-54.71c1.55-8.51,11.9-11.94,18.23-6.04l38.92,36.29c.28.26.55.54.8.82l105.89,121.82c1.19,1.37,2.7,2.42,4.4,3.06l99.45,37.52c11.1,4.19,20-9.82,11.48-18.09l-127.4-123.69c-.28-.27-.55-.56-.8-.86l-84.08-101.24c-1.55-1.87-2.44-4.2-2.52-6.63l-1.96-59.97c-.25-7.78,7.47-13.33,14.76-10.61l75.6,28.23c2.31.86,4.27,2.48,5.54,4.6l82.27,136.39c.15.25.31.49.48.73h0c7.7,10.73,24.3,1.16,18.86-10.88l-16.97-37.6-25.38-57.59c-1.18-2.68-1.24-5.72-.16-8.44l12.13-30.65c2.39-6.05,9.51-8.69,15.27-5.66l43.03,22.62c2.37,1.25,4.2,3.32,5.15,5.82l43.59,115.49c.24.63.42,1.29.54,1.95l14.91,84.13c2.23,12.56,20.49,11.8,21.67-.9l.69-7.42c.09-.95.05-1.91-.11-2.85l-21.15-124.01c-.18-1.06-.52-2.09-1-3.05L297.6,31.84c-.84-1.69-1.24-3.56-1.14-5.45l.76-15.01c.32-6.41,6.08-11.17,12.44-10.28l46.3,6.44c3.2.45,6.04,2.28,7.76,5.02l58.45,93.15c.65,1.04,1.13,2.19,1.4,3.39l14.37,63.22c.2.89.29,1.79.27,2.7l-2.46,96.64c-.02.75-.12,1.51-.29,2.24l-9.66,40.84c-2.86,12.11,13.48,18.84,19.98,8.24l10.42-17c.66-1.08,1.13-2.26,1.38-3.5l16.75-80.74c.26-1.25.3-2.54.11-3.81l-12.73-86.65c-.43-2.91.34-5.87,2.12-8.22l5.44-7.15c3.43-4.51,9.74-5.65,14.54-2.63l26.21,16.51c2.8,1.76,4.65,4.7,5.04,7.99l12.26,105.14c.23,1.96-.08,3.94-.88,5.73l-39.68,88.74c-.61,1.36-1.48,2.57-2.57,3.58l-99,91.25c-2.55,2.35-6.07,3.35-9.48,2.7Z"/></g></svg>