<?xml version="1.0" encoding="UTF-8"?><svg id="Camada_2" xmlns="http://www.w3.org/2000/svg" viewBox="0 0 554.77 689.48"><defs><style>.cls-1{fill:none;stroke:#f69220;stroke-miterlimit:10;stroke-width:2px;}</style></defs><g id="Camada_de_Informações_da_amostra"><path class="cls-1" d="M1.84,413.09c1.22-1.64,3.44-2.19,5.28-1.31l93.84,44.74c.91.43,1.64,1.17,2.05,2.09l27.33,59.96c.06-.22.13-.43.22-.64l10.96-25.02-39.68-67.41-36.59-48.2c-.52-.69-.83-1.51-.87-2.38l-4.85-96.06-17.69-45.62c-.78-2.01.02-4.23,1.9-5.29,1.88-1.05,4.19-.58,5.5,1.13l57.82,75.51c.34.45.59.95.73,1.49l43.81,163.83,14.79-33.76-27.95-105.53-36.69-75.16c-.95-1.94-.33-4.23,1.46-5.44,1.79-1.21,4.14-.91,5.59.7l67.77,75.73c.66.74,1.05,1.69,1.09,2.67l3.25,73.89,3.1-7.07c.17-.39.4-.76.7-1.1l18.62-21.3-17.22-84.32-20.27-97.96c-.43-2.09.71-4.15,2.71-4.89,2-.74,4.21.08,5.24,1.95l51.36,93.13c.4.72.58,1.52.53,2.35l-4.43,69.23,10.83-12.39c.18-.2.38-.39.6-.56l16.53-12.7-13.47-100.42-19.09-76.32c-.49-1.97.44-3.98,2.26-4.88,1.82-.9,3.98-.42,5.25,1.18l50.93,64.09c.71.89,1.03,2,.9,3.13l-11.09,101.17,20.79-15.97,14.59-80.53-1.64-90.79c-.04-2.06,1.34-3.82,3.36-4.26,2.01-.45,4.01.56,4.84,2.45l34.78,78.37c.48,1.07.49,2.31.04,3.39l-30.3,72.83,66.56-43.4-11.51-28.25c-.2-.49-.31-1.01-.32-1.54l-1.04-56.78c0-.29.02-.58.08-.86l9.7-50.96c.38-2.02,2.09-3.45,4.15-3.48.02,0,.04,0,.06,0,2.03,0,3.75,1.38,4.18,3.37l15.77,71.85c.13.58.13,1.17.02,1.75l-4.35,21.78-.13,24.78,37.45-67.78-29.67-80.17c-.23-.64-.31-1.33-.23-2l7.79-64.39c.23-1.94,1.75-3.48,3.7-3.73,1.94-.26,3.81.84,4.54,2.66l34.81,86.97c.3.75.38,1.56.24,2.36l-11.7,64.15c-.08.41-.21.8-.4,1.17l-17.35,34.05,25.57-18.53c.9-.65,2-.93,3.1-.77l57.01,7.89,39.08-9.51c1.85-.45,3.74.35,4.71,1.99.97,1.64.74,3.68-.55,5.08l-23.03,24.91c-.84.91-2.04,1.4-3.27,1.37l-62.17-1.91-53,14.12-13.93,27.34c-.35.68-.87,1.25-1.5,1.65l-6.27,4.04,73.41-13.2c.4-.07.8-.09,1.21-.04l59.27,6.29c1.04.11,2,.59,2.71,1.36l10.47,11.41c1.14,1.24,1.44,3.04.78,4.59-.66,1.55-2.18,2.56-3.86,2.59l-58.63,1.04-45.83,12.74c-.5.14-1.02.19-1.53.14l-70.21-6.18-30.81,19.83,53.6-14.49c.6-.16,1.24-.2,1.87-.09l63.51,11.12c.81.14,1.56.51,2.16,1.06l58.82,53.88c1.41,1.29,1.79,3.31.96,5.02-.83,1.72-2.65,2.66-4.53,2.37l-94.81-15.16-77.83-15.25c-.11-.02-.22-.05-.32-.08l-30.5-8.94-34.45,28.2,55.31-7.5c.51-.07,1.02-.04,1.51.07l91.77,20.66c1.3.29,2.36,1.15,2.93,2.35l32.89,69.64c.8,1.7.42,3.69-.96,4.97-1.37,1.28-3.39,1.52-5.03.59l-99.1-56.06-97.89-19.52-2.22,1.82-37.09,45.56,71.03-23.45c.68-.23,1.42-.28,2.12-.15l78.6,14.55c.97.18,1.85.69,2.48,1.43l44.1,51.65c1.25,1.46,1.37,3.59.29,5.18s-3.1,2.27-4.92,1.66l-116.16-39.36-90.51,9.9-20.48,46.11,100.21-38.5c.9-.35,1.91-.38,2.83-.08l71.64,22.66c1.15.36,2.1,1.2,2.6,2.29l32.66,70.52c.8,1.72.38,3.73-1.03,5s-3.46,1.45-5.08.46l-94.62-57.61-117.55,14.06-15.44,34.76,1.25,11.88,48.37-31.91c.61-.41,1.33-.65,2.07-.7l96.86-6.79c1.63-.11,3.21.73,4.02,2.14l48.52,84.64c.95,1.66.7,3.71-.62,5.09-1.32,1.38-3.36,1.73-5.06.85l-114.31-58.93-78.22,21.06,13.68,129.96c.23,2.18-1.21,4.17-3.35,4.64l-20.74,4.5c-.3.06-.61.1-.91.1-.94,0-1.86-.31-2.62-.9-1-.77-1.61-1.94-1.66-3.21l-5.55-133.08-54.2-49.85c-.09-.08-.17-.16-.26-.25L2.11,418.53c-1.37-1.51-1.48-3.8-.26-5.44Z"/></g></svg>