<?xml version="1.0" encoding="UTF-8"?><svg id="Camada_2" xmlns="http://www.w3.org/2000/svg" viewBox="0 0 417.46 602.68"><defs><style>.cls-1{fill:none;stroke:#464f15;stroke-miterlimit:10;stroke-width:2px;}</style></defs><g id="Camada_de_Informações_da_amostra"><path class="cls-1" d="M156.27,512.35l-1.22,58.55c-.38,18.01,15.01,32.33,32.95,30.66l58.15-5.42c15.51-1.44,27.36-14.46,27.36-30.03v-189.65c0-15.37,11.55-28.28,26.83-29.97l58.02-6.45c6.91-.77,13.34-3.9,18.21-8.86l31.28-31.91c5.73-5.84,8.84-13.76,8.61-21.94l-2.2-79.57c-.26-9.31-4.75-18.05-12.31-23.49-10.59-7.62-28.6-16.34-55.57-16.34-33.06,0-35.74,35.89-37.15,49.21-1.41,13.32-6.93,59.98-29.53,55.48-3.29-.65,2.12-153.27,3.9-201.34.34-9.07-3.43-17.8-10.25-23.78l-33.05-28.99c-8.44-7.4-20.31-9.56-30.76-5.46-13.62,5.35-30.98,18.26-42,49.16-15.87,44.52-9.29,221.07-5.61,296.76,1.07,22.12-21.42,38.17-41.71,29.3-1.26-.55-2.39-1.16-3.35-1.82-9.55-6.61-2.58-63.58.14-83.2.63-4.57.21-9.22-1.24-13.6-4.64-13.95-16-43.91-27.98-43.91-15.62,0-55.82,17.65-77.08,44.72-16.31,20.76-8.09,99.79-3.36,135.5,1.44,10.88,8.66,20.11,18.87,24.12l110.96,43.58c11.76,4.62,19.39,16.07,19.13,28.7Z"/></g></svg>