<?xml version="1.0" encoding="UTF-8"?><svg id="Camada_2" xmlns="http://www.w3.org/2000/svg" viewBox="0 0 499.72 643.58"><defs><style>.cls-1{fill:none;stroke:#fec430;stroke-miterlimit:10;stroke-width:2px;}</style></defs><g id="Camada_de_Informações_da_amostra"><path class="cls-1" d="M488.36,277.86l-77.26,92.61c-3.45,4.13-10.18,1.82-10.36-3.56l-4.97-148.01c-.03-.98-.31-1.93-.81-2.78l-57.62-97.69c-2.33-3.96-8.11-3.81-10.24.26l-42.71,81.68c-2.57,4.93-9.92,3.84-10.95-1.62l-22.85-120.84c-.22-1.18-.8-2.26-1.66-3.1l-59.87-58.69c-3.52-3.45-9.47-1.28-9.94,3.63l-8.26,87.02c-.43,4.51-5.59,6.85-9.26,4.2L10.77,2.14C5.93-1.35-.43,3.79,1.98,9.26l81.29,184.23c2.18,4.95-2.92,9.96-7.82,7.68l-66.11-30.62c-4.89-2.26-9.99,2.72-7.83,7.66l47.43,108.84c.29.67.7,1.27,1.21,1.79l54.16,54.68c4.29,4.33-.06,11.52-5.89,9.73l-67.73-20.8c-3.57-1.1-7.24,1.38-7.56,5.1l-7.35,86.39c-.21,2.43,1.12,4.74,3.32,5.79l178.42,84.91c5.34,2.54,3.98,10.5-1.91,11.12l-86.74,9.13c-4.68.49-6.9,6.02-3.86,9.61l70.88,83.82c1.04,1.23,2.55,1.98,4.16,2.07l225.59,12.2c1.62.09,3.21-.5,4.39-1.64l1.02-.98,6.76-6.54.05-.05h.01s.11-.05.1-.08h0s5.73-5.55,5.73-5.55l3.11-3.01,1.45-1.4c.48-.47.88-1.01,1.18-1.61l66.14-132.97c.4-.79.6-1.66.61-2.54l2.55-204.52c.07-5.52-6.83-8.06-10.37-3.83Z"/></g></svg>